<?xml version="1.0" encoding="UTF-8"?>
<!DOCTYPE svg PUBLIC "-//W3C//DTD SVG 1.1//EN" "http://www.w3.org/Graphics/SVG/1.1/DTD/svg11.dtd">
<svg xmlns="http://www.w3.org/2000/svg" version="1.1" width="222px" height="192px" style="shape-rendering:geometricPrecision; text-rendering:geometricPrecision; image-rendering:optimizeQuality; fill-rule:evenodd; clip-rule:evenodd" xmlns:xlink="http://www.w3.org/1999/xlink">
<g><path style="opacity:0.894" fill="#fffefe" d="M 53.5,-0.5 C 91.1667,-0.5 128.833,-0.5 166.5,-0.5C 184.862,30.9011 203.195,62.2344 221.5,93.5C 221.5,94.8333 221.5,96.1667 221.5,97.5C 203.195,128.766 184.862,160.099 166.5,191.5C 128.833,191.5 91.1667,191.5 53.5,191.5C 36.016,159.865 18.016,128.531 -0.5,97.5C -0.5,96.1667 -0.5,94.8333 -0.5,93.5C 18.0021,62.5008 36.0021,31.1675 53.5,-0.5 Z M 63.5,14.5 C 77.5,14.5 91.5,14.5 105.5,14.5C 105.667,29.837 105.5,45.1703 105,60.5C 102.447,62.7162 100.28,65.2162 98.5,68C 100.356,70.1812 102.523,72.0146 105,73.5C 105.499,79.1569 105.666,84.8236 105.5,90.5C 98.5,90.5 91.5,90.5 84.5,90.5C 84.5,85.5 84.5,80.5 84.5,75.5C 73.1471,75.1678 61.8138,75.5012 50.5,76.5C 47.9593,81.0825 45.2926,85.5825 42.5,90C 35.1667,90.6667 27.8333,90.6667 20.5,90C 34.9836,64.8599 49.3169,39.6933 63.5,14.5 Z M 115.5,14.5 C 129.516,14.1674 143.516,14.5008 157.5,15.5C 171.96,40.2516 186.293,65.085 200.5,90C 193.167,90.6667 185.833,90.6667 178.5,90C 176.041,86.25 173.708,82.4166 171.5,78.5C 158.851,77.5009 146.184,77.1676 133.5,77.5C 133.5,81.8333 133.5,86.1667 133.5,90.5C 127.5,90.5 121.5,90.5 115.5,90.5C 115.5,65.1667 115.5,39.8333 115.5,14.5 Z M 20.5,101.5 C 48.6618,100.502 76.9951,100.169 105.5,100.5C 105.5,106.5 105.5,112.5 105.5,118.5C 96.1607,118.334 86.8274,118.5 77.5,119C 84.8791,130.922 91.8791,143.088 98.5,155.5C 100.743,156.474 103.076,156.808 105.5,156.5C 105.5,163.167 105.5,169.833 105.5,176.5C 91.4841,176.833 77.4841,176.499 63.5,175.5C 60.2111,169.086 56.5444,162.919 52.5,157C 59.1915,156.831 65.8581,156.331 72.5,155.5C 65.5,143.5 58.5,131.5 51.5,119.5C 44.5236,118.669 37.5236,118.169 30.5,118C 27.2666,112.353 23.9333,106.853 20.5,101.5 Z M 115.5,100.5 C 143.835,100.333 172.169,100.5 200.5,101C 186.293,125.915 171.96,150.748 157.5,175.5C 143.516,176.499 129.516,176.833 115.5,176.5C 115.5,151.167 115.5,125.833 115.5,100.5 Z"/></g>
<g><path style="opacity:0.805" fill="#fefeff" d="M 74.5,34.5 C 77.8333,34.5 81.1667,34.5 84.5,34.5C 84.5,42.8333 84.5,51.1667 84.5,59.5C 76.4931,59.6664 68.4931,59.4997 60.5,59C 65.3944,50.9449 70.0611,42.7783 74.5,34.5 Z"/></g>
<g><path style="opacity:0.816" fill="#fefefe" d="M 133.5,34.5 C 137.884,34.1744 142.217,34.5078 146.5,35.5C 152.005,43.8399 157.005,52.5065 161.5,61.5C 152.19,62.4983 142.857,62.8316 133.5,62.5C 133.5,53.1667 133.5,43.8333 133.5,34.5 Z"/></g>
<g><path style="opacity:0.827" fill="#fefffe" d="M 137.5,118.5 C 147.855,118.168 158.188,118.501 168.5,119.5C 161.167,131.833 153.833,144.167 146.5,156.5C 143.572,157.484 140.572,157.817 137.5,157.5C 137.5,144.5 137.5,131.5 137.5,118.5 Z"/></g>
</svg>
